<?xml version="1.0" encoding="utf-8"?>
<!-- Generator: Adobe Illustrator 22.1.0, SVG Export Plug-In . SVG Version: 6.00 Build 0)  -->
<svg version="1.1" id="Layer_1" xmlns="http://www.w3.org/2000/svg" xmlns:xlink="http://www.w3.org/1999/xlink" x="0px" y="0px"
	 viewBox="0 0 404 116" style="enable-background:new 0 0 404 116;" xml:space="preserve">
<style type="text/css">
	.st0{fill-rule:evenodd;clip-rule:evenodd;fill:#024FEE;}
	.st1{fill:#024FEE;}
	.st2{fill-rule:evenodd;clip-rule:evenodd;fill:#FFFFFF;}
</style>
<g>
	<path class="st0" d="M368.5,5.7C361.7,2,354.2,0,339.6,0H50.4c-14.6,0-22,2-28.9,5.7C14.6,9.4,9.3,14.9,5.6,21.9
		C1.9,28.8,0,36.4,0,51.3v13.5c0,14.8,1.9,22.4,5.6,29.4c3.7,7,9,12.4,15.9,16.2c6.8,3.7,14.3,5.7,28.9,5.7h289.3
		c14.6,0,22-2,28.9-5.7c6.8-3.7,12.2-9.2,15.9-16.2c3.7-7,5.6-14.6,5.6-29.4V51.3c0-14.8-1.9-22.4-5.6-29.4
		C380.7,14.9,375.4,9.4,368.5,5.7z"/>
	<g>
		<path class="st1" d="M395,0c-4.9,0-9,3.8-9,9c0,5.2,4.1,9,9,9c4.8,0,9-3.8,9-9C404,3.8,399.9,0,395,0z M395,16.5
			c-4,0-7.2-3.2-7.2-7.5c0-4.3,3.2-7.5,7.2-7.5c4,0,7.2,3.2,7.2,7.5C402.2,13.3,399,16.5,395,16.5z"/>
		<path class="st1" d="M399.1,6.8c0-2-1.2-3-3.6-3h-3.9v10.4h1.5V9.7h1.8l2.7,4.5h1.7l-2.9-4.6C398,9.4,399.1,8.6,399.1,6.8z
			 M393.1,8.4V5.1h2.1c1.1,0,2.2,0.2,2.2,1.5c0,1.6-1.2,1.7-2.5,1.7H393.1z"/>
	</g>
	<g>
		<polygon class="st2" points="333.6,73.5 329.6,73.5 328.5,73.5 329.1,72.5 346,44.1 299.8,44.1 299.8,60.6 311.5,60.6 315.5,60.6 
			316.6,60.6 316,61.6 299.8,90 345.4,90 346,90 346,73.6 345.4,73.5 		"/>
		<polygon class="st2" points="288.1,43.7 287.4,43.7 287.4,43.1 287.4,26.2 265.1,26.2 265.1,43.1 265.1,43.7 264.4,43.7 
			258.7,43.7 258.7,60.4 264.4,60.4 265.1,60.4 265.1,61.1 265.1,90 287.4,90 287.4,61.1 287.4,60.4 288.1,60.4 294.6,60.4 
			294.6,43.7 		"/>
		<path class="st2" d="M242.9,41c5.8,0,10.6-4.7,10.6-10.5c0-2.8-1.1-5.4-3.1-7.4c-2-2-4.6-3.1-7.5-3.1c-2.8,0-5.5,1.1-7.5,3.1
			c-2,2-3.1,4.6-3.1,7.4c0,2.8,1.1,5.4,3.1,7.4C237.5,39.9,240.1,41,242.9,41z"/>
		<polygon class="st2" points="233,44.1 233,90 253.5,90 253.5,90 253.5,44.1 253.5,44.1 		"/>
		<polygon class="st2" points="207.3,90 207.3,90 227.8,90 227.8,21.1 207.3,21.1 		"/>
		<path class="st2" d="M186.6,52.8v-8.7h0h-20.4V90v0h20.7h0V72.6c0-5.7,2.9-11.9,9.2-11.9l3.6,0h2.5l0-16.6h0
			C194.6,43.9,188.9,46.3,186.6,52.8z"/>
		<path class="st2" d="M133.1,44.1c-7.7,0-14.6,2.6-19.4,7.2c-4.4,4.3-6.7,10-6.7,16.5c0,6,2,11,6,14.8c4.9,4.8,12.5,7.4,21.4,7.4
			c10.3,0,22.4-4,25.3-14.7v0l-20.7,0v0c-0.5,2.5-2.4,3.7-5,3.7c-1.7,0-3-0.5-4-1.4c-1.8-1.7-2-4.6-2-6.9v-0.6h0.6H161
			c0.5-7.3-1.7-13.1-6.3-17.8C149.6,47,141.9,44.1,133.1,44.1z M140,62h-0.6h-10.6h-0.6v-0.6c0-3.9,2.3-6.5,5.7-6.5
			c1.6,0,3,0.6,4.1,1.7c1.3,1.2,2,3,2,4.8V62z"/>
		<path class="st2" d="M93.5,57.8l-2.8-0.9c1.4-0.2,2.8-0.8,2.8-0.8c4.9-1.6,8-6.5,8-12.5c0-4.9-1.4-8.7-4.1-11.5
			c-3.9-4-10.6-5.9-20.3-5.9H48V90h33.7c11.1,0,22.9-4.5,22.9-17.3C104.5,63.7,98.5,59.6,93.5,57.8z M70.9,50.6v-9.3v-0.6h0.6h1.6
			h0.6c2.3,0,4.9,0,6.5,1.5c0.8,0.8,1.3,2,1.3,3.6c0,1.6-0.4,2.8-1.3,3.7c-1.5,1.5-4,1.7-6.5,1.7h-2.1h-0.6V50.6z M82.7,73.6
			c-2.1,2.1-6,2.1-8.5,2.1h-2.6h-0.6v-0.6V64.3v-0.6h0.6h2.3H74c2.8,0,6.6,0,8.7,2.1c1,1,1.4,2.3,1.4,3.9
			C84.2,71.3,83.7,72.6,82.7,73.6z"/>
	</g>
</g>
</svg>
